<svg xmlns="http://www.w3.org/2000/svg" xmlns:xlink="http://www.w3.org/1999/xlink" viewBox="0 0 711.12 541.51"><defs><style>.cls-1,.cls-10{fill:#633dbe;}.cls-1,.cls-2,.cls-3,.cls-4,.cls-6,.cls-7,.cls-8,.cls-9{stroke:#3c0db0;}.cls-1,.cls-2,.cls-3,.cls-4,.cls-5,.cls-6,.cls-7,.cls-8,.cls-9{stroke-linecap:round;stroke-linejoin:round;stroke-width:3px;}.cls-12,.cls-2{fill:#ba89e0;}.cls-14,.cls-3{fill:#fff;}.cls-4{fill:#f66174;}.cls-5,.cls-6{fill:none;}.cls-5{stroke:#fff;}.cls-7{fill:#ff8dc0;}.cls-18,.cls-8{fill:#ffd259;}.cls-9{fill:#4db975;}.cls-11{clip-path:url(#clip-path);}.cls-13{clip-path:url(#clip-path-2);}.cls-15{clip-path:url(#clip-path-3);}.cls-16{fill:#3c0db0;}.cls-17{clip-path:url(#clip-path-4);}.cls-19{fill:#8cc9ff;}</style><clipPath id="clip-path" transform="translate(-195.98 -551.3)"><path class="cls-1" d="M493.72,890.84c-53.79-26.06-69-102.4-34.38-153.45,15.5-22.89,38.85-36.75,61.81-49.5,11.81-6.55,24.48-12.46,35.37-20.69,7.27-5.48,14.46-15.07,24-15.67,11.3-.71,18.92,11.46,27.15,17.8,12.75,9.82,26.55,18.2,40.38,26.13,44.13,25.29,82.28,67.26,67.48,125.64-17,67-82.89,90.67-139.82,88.24C548.27,908.17,519,903.1,493.72,890.84Z"/></clipPath><clipPath id="clip-path-2" transform="translate(-195.98 -551.3)"><path class="cls-2" d="M613.21,798.67c3.34-3.78,2.46-6.88-.47-8.58s-7.4-1.59-9.91.73c1.89-1.78,1.2-5.42-.88-7s-4.92-1.35-7.27-.35a10.33,10.33,0,0,0-4.2,3.15,14.32,14.32,0,0,0,1.22-5.08,4.65,4.65,0,0,0-2.38-4.29,5.44,5.44,0,0,0-4,.29,31.86,31.86,0,0,0-16,13.18c-1.31,2.1-7.64,2.37-9.8,2.87a101.38,101.38,0,0,0-14.81,4.65A109.31,109.31,0,0,0,503,827.66c-15.93,18.08-25.8,45.6-21.87,69.34,9.86,59.62,82.37,75.24,133.76,65.33,26.3-5.07,49.77-21.38,60.52-45.47,9.45-21.19,7.91-45.89-1.55-66.86A90.2,90.2,0,0,0,649,817.39,98.5,98.5,0,0,0,613.21,798.67Z"/></clipPath><clipPath id="clip-path-3" transform="translate(-195.98 -551.3)"><path class="cls-3" d="M602.92,895.93c-.65-11.28,4.55-21.88,13.79-29.72a42.36,42.36,0,0,1,34-9.54c8.33,1.44,14.07,6.43,14.56,8.27,2.09,7.78-2.37,20.62-9.9,27.15C640.79,904.73,615.47,903.15,602.92,895.93Z"/></clipPath><clipPath id="clip-path-4" transform="translate(-195.98 -551.3)"><path class="cls-3" d="M555.6,893.67a47.7,47.7,0,0,0-13-28.94,44.14,44.14,0,0,0-27.85-13.31c-7.7-.63-16,1.11-21.6,6.72.85,14.22,10.4,25.73,21.86,32.48a53.78,53.78,0,0,0,18.88,6.82C536.8,897.89,555.91,897.47,555.6,893.67Z"/></clipPath></defs><g id="asssets"><path class="cls-2" d="M690,592c8.46,2.21,7.17,9.1-1,10.58-7,1.27-14.29-.44-21.11-1.61L616,591.72c-13-2.07-13.56-5.91-13.34-9.42.66-10.69,29-1.61,49.52,1.83C663.16,586,679.26,589.23,690,592Z" transform="translate(-195.98 -551.3)"/><path class="cls-2" d="M763.79,606.15c2.75.76,8.6,3.24,7.28,7.48-2.16,6.9-25.73,1.39-31.19.38-6.68-1.25-27.67-5.46-34.35-6.7-4.39-.82-27.24-2.3-22.29-12.69,3.63-7.64,16.79-2.21,26-.55C722.14,596.4,751.1,602.66,763.79,606.15Z" transform="translate(-195.98 -551.3)"/><path class="cls-4" d="M609.9,590.48c1.72-6.75,2.53-10.93,2.15-15.69a2,2,0,0,0-1.71-1.83,77.94,77.94,0,0,1-9.43-1.43c1.27-3.16,2.71-7.78.83-11.29a10.79,10.79,0,0,0-9.85-5.58,6.42,6.42,0,0,0-6.24,5.69c-.81,7.57-2.71,15.2-2.73,22.82C582.9,592,602.06,592,608,592A2,2,0,0,0,609.9,590.48Z" transform="translate(-195.98 -551.3)"/><path class="cls-5" d="M595.58,560.17a4.46,4.46,0,0,0-3.47-.89" transform="translate(-195.98 -551.3)"/><path class="cls-6" d="M602.58,571.8c-1.61-.33-3.12-.06-4.5-.78" transform="translate(-195.98 -551.3)"/><path class="cls-2" d="M297.35,725.76c7.61-6.31,13.08-.74,9,7.67-3.46,7.18-9.85,12.75-15.43,18.24l-48.54,44.91c-10.49,10.56-13.67,7.24-17.45,6.18-12.24-3.41,27.64-34.51,44.35-51C278.27,742.85,287.65,733.8,297.35,725.76Z" transform="translate(-195.98 -551.3)"/><path class="cls-2" d="M372,647.41c2.38-2.2,8.26-6.36,11.51-2.66,5.31,6-15.81,27.46-20.06,32.09-5.19,5.66-21.8,23.28-27,28.94-3.41,3.72-26.5,32.29-33.48,21.59-5.12-7.86,18.49-27.5,23-32.72C335.75,683.42,361.07,657.5,372,647.41Z" transform="translate(-195.98 -551.3)"/><path class="cls-7" d="M238.79,801.52c-5.65-6-8.92-9.75-13-13.75-2.78,2.82-5.48,4.59-8.26,7.4-2.16-4.52-4.27-7-8.18-7.83a10.83,10.83,0,0,0-10.57,4.06,6.54,6.54,0,0,0,.42,8.43c5.2,5.8,10,11.76,15.86,16.63C222.64,822.71,237,803.61,238.79,801.52Z" transform="translate(-195.98 -551.3)"/><path class="cls-5" d="M208.18,792.66c-2.48.18-4.06,1.2-4.77,3.38" transform="translate(-195.98 -551.3)"/><path class="cls-6" d="M217.67,794.93a5.84,5.84,0,0,1-1.14,5" transform="translate(-195.98 -551.3)"/><path class="cls-1" d="M372.66,643.85a8.11,8.11,0,0,0,1,5.87c6.23,10.91,21.79,3.18,17.34-8.48C387.2,631.38,374.45,635.52,372.66,643.85Z" transform="translate(-195.98 -551.3)"/><path class="cls-2" d="M410.84,714.51c2.08,4,4.31,8.13,8,10.8,1.43,1.05,3.26,1.86,5,1.32,1.88-.59,2.95-2.71,3-4.69a14.2,14.2,0,0,0-1.62-5.66c-8-18.07-22.89-51.19-34.06-67.61-3.73-5.48-8.88-6.76-10.08.33-1.3,7.65,11.37,28.5,14.58,35.1Q403,699.42,410.84,714.51Z" transform="translate(-195.98 -551.3)"/><path class="cls-2" d="M459.19,778.34q-11.18-21.51-22.34-43c-1.26-2.42-5.79-11.6-8-13.23s-5.49-2.1-7.56-.31c-2.62,2.27-2,6.53-.73,9.77A334.19,334.19,0,0,0,448,784.35c1.39,2.1,6.83,12.66,9.23,13.42C464.77,800.17,461.46,782.72,459.19,778.34Z" transform="translate(-195.98 -551.3)"/><path class="cls-2" d="M843.4,739.73c-4.28-8.91-11.57-6.14-11.41,3.19.13,8,3.61,15.71,6.39,23l25.3,61.1c5.11,14,9.39,12.29,13.27,12.91C889.49,842,866.28,797,858,775,853.58,763.23,848.85,751.09,843.4,739.73Z" transform="translate(-195.98 -551.3)"/><path class="cls-2" d="M811,641.9c-1.24-3-4.84-9.23-9.35-7.23-7.34,3.26,2.88,31.56,4.8,37.54,2.35,7.31,10.1,30.25,12.42,37.57,3.64,11.54,9.18,36.79,20,30,7.94-5-3.92-29.08-5.85-35.72C828.83,689.78,816.67,655.65,811,641.9Z" transform="translate(-195.98 -551.3)"/><path class="cls-8" d="M864.9,833c7.64-3.07,12.18-5.12,17.52-7.06,1.35,3.73,3.06,6.46,4.41,10.18,3.86-3.2,6.83-4.61,10.71-3.69a10.83,10.83,0,0,1,7.91,8.1,6.56,6.56,0,0,1-3.91,7.49c-7.15,3.09-14,6.5-21.37,8.46C870.71,859,865.63,835.68,864.9,833Z" transform="translate(-195.98 -551.3)"/><path class="cls-5" d="M896.41,837.8c2.18,1.19,3.19,2.79,2.92,5.06" transform="translate(-195.98 -551.3)"/><path class="cls-6" d="M886.85,835.88a5.86,5.86,0,0,0-1.05,5" transform="translate(-195.98 -551.3)"/><path class="cls-1" d="M812.42,643.94a8,8,0,0,1-3.33,4.93c-10.22,7.3-21.11-6.23-12.2-15C804.43,626.53,814.28,635.62,812.42,643.94Z" transform="translate(-195.98 -551.3)"/><path class="cls-2" d="M766.88,708.11c-2.51,3.75-5.17,7.61-9.08,9.86-1.54.89-3.45,1.49-5.08.77-1.81-.79-2.63-3-2.42-5a14.07,14.07,0,0,1,2.22-5.45c10-17.09,28.37-48.37,41.28-63.47,4.3-5,9.57-5.74,10,1.44.44,7.74-14.44,27.08-18.36,33.29Q776.36,694,766.88,708.11Z" transform="translate(-195.98 -551.3)"/><path class="cls-2" d="M711.82,766.25l26.93-40.31c1.51-2.26,7-10.9,9.38-12.28s5.69-1.48,7.54.53c2.37,2.55,1.28,6.71-.34,9.79-7.35,14-21.66,35.77-33,49.47-1.61,1.94-8.17,11.84-10.64,12.33C703.88,787.33,709.08,770.35,711.82,766.25Z" transform="translate(-195.98 -551.3)"/><path class="cls-2" d="M318.17,793.78c1.37-9.79,9.16-9.37,11.84-.44,2.3,7.64,1.34,16.07.92,23.88l-3.64,59.53c-.63,14.87-4.8,16.06-8.72,16.33-11.92.84-5.49-32.25-4.31-55.72C314.9,824.77,316.44,806.26,318.17,793.78Z" transform="translate(-195.98 -551.3)"/><path class="cls-2" d="M325.31,699.68c.49-3.2,2.48-10.12,7.33-9.27,7.91,1.4,4.84,28.61,4.41,34.88-.52,7.66-2.5,31.79-3,39.45-.34,5,.94,30.85-11.19,26.85-8.91-2.94-4.2-22.1-3.93-29C319.5,747.73,323.06,714.4,325.31,699.68Z" transform="translate(-195.98 -551.3)"/><path class="cls-1" d="M323.52,690.6a8.14,8.14,0,0,0,1.7,5.7c7.57,10,22,.39,16.13-10.61C336.37,676.38,324.25,682.1,323.52,690.6Z" transform="translate(-195.98 -551.3)"/><path class="cls-9" d="M328.1,878.68c-8.23-.28-13.2-.65-18.88-.65,0,4-.68,6.45-1.15,10.37-3.75-1.18-7.51-1.3-10.84.89a10.84,10.84,0,0,0-4.67,10.32,6.41,6.41,0,0,0,6.23,5.69c7.61.13,17.21,1.46,24.67,0C330.37,903.87,328.31,881.42,328.1,878.68Z" transform="translate(-195.98 -551.3)"/><path class="cls-6" d="M308.55,885c-.49,3.16-.69,4.68-.95,7.29" transform="translate(-195.98 -551.3)"/><path class="cls-5" d="M301.45,893.16c-2.28,1-3.42,2.51-3.34,4.79" transform="translate(-195.98 -551.3)"/><path class="cls-2" d="M380,749.7c3,3.4,6.1,6.89,10.27,8.62,1.64.68,3.61,1,5.13.12,1.69-1,2.23-3.33,1.77-5.25a14.25,14.25,0,0,0-2.9-5.13c-12.06-15.67-37-45.38-51.73-58.7-4.91-4.45-10.42-3.51-9.92,3.66.55,7.74,20.65,25.09,25.33,30.75Q368.76,736.88,380,749.7Z" transform="translate(-195.98 -551.3)"/><path class="cls-2" d="M442,800.33l-31.86-36.54c-1.79-2-8.36-9.91-10.87-11s-5.84-.74-7.42,1.48c-2,2.84-.4,6.83,1.59,9.68,9.09,13,26.06,32.7,39.09,44.84,1.85,1.71,9.62,10.69,12.14,10.86C452.57,820.22,445.24,804,442,800.33Z" transform="translate(-195.98 -551.3)"/><path class="cls-2" d="M486.78,581.39c-7.89,1.6-7.28,8.56.06,10.62,6.28,1.76,13.09.57,19.41-.11l48.17-5.56c12-1.13,12.86-4.92,12.94-8.43.26-10.71-26.35-3.67-45.36-1.71C511.81,577.26,496.85,579.35,486.78,581.39Z" transform="translate(-195.98 -551.3)"/><path class="cls-2" d="M410.69,591.41c-2.58.56-8.13,2.62-7.26,6.93,1.41,7,23.38,3.22,28.44,2.6,6.2-.76,25.71-3.46,31.91-4.23,4.08-.5,25.06-.35,21.39-11.06-2.7-7.86-15.16-3.4-23.67-2.4C449.51,584.66,422.55,588.83,410.69,591.41Z" transform="translate(-195.98 -551.3)"/><path class="cls-1" d="M394,596.49a8.16,8.16,0,0,0,1,5.87c6.24,10.91,21.79,3.18,17.34-8.48C408.58,584,395.84,588.16,394,596.49Z" transform="translate(-195.98 -551.3)"/><path class="cls-1" d="M763.78,613.56a8.19,8.19,0,0,0,1,5.88c6.24,10.9,21.79,3.17,17.34-8.49C778.32,601.09,765.58,605.23,763.78,613.56Z" transform="translate(-195.98 -551.3)"/><path class="cls-2" d="M423.32,666.67c1.78,4.15,3.69,8.43,7.13,11.36,1.35,1.15,3.12,2.09,4.85,1.68,1.92-.45,3.14-2.48,3.29-4.45a14,14,0,0,0-1.19-5.77c-6.66-18.62-19-52.74-29-69.94-3.31-5.74-8.35-7.4-10.07-.42-1.86,7.54,9.23,29.27,11.95,36.09Q416.6,651,423.32,666.67Z" transform="translate(-195.98 -551.3)"/><path class="cls-2" d="M466.82,733.9q-9.54-22.27-19.1-44.55c-1.07-2.51-4.91-12-7-13.79s-5.33-2.5-7.52-.87c-2.79,2.08-2.48,6.37-1.46,9.69a334.07,334.07,0,0,0,23.45,54.68c1.22,2.2,5.87,13.13,8.21,14.07C470.78,756.08,468.77,738.43,466.82,733.9Z" transform="translate(-195.98 -551.3)"/><path class="cls-2" d="M745.63,680.57c-2.19,3.79-4.52,7.7-8,10-1.38.91-3.08,1.55-4.56.86-1.65-.76-2.43-3-2.28-4.94a15.15,15.15,0,0,1,1.9-5.49c8.66-17.25,23.22-46.92,34.57-62.23,3.79-5.1,8.52-5.9,9,1.27.54,7.74-11,25.41-14.47,31.68Q753.9,666.28,745.63,680.57Z" transform="translate(-195.98 -551.3)"/><path class="cls-2" d="M697.08,739.62q11.76-20.39,23.53-40.75c1.32-2.29,6.13-11,8.22-12.43s5.11-1.58,6.81.39c2.18,2.52,1.27,6.7-.12,9.8a339.47,339.47,0,0,1-28.87,50c-1.41,2-7.15,12-9.36,12.5C690.31,760.82,694.69,743.76,697.08,739.62Z" transform="translate(-195.98 -551.3)"/><path class="cls-2" d="M828.06,830.52c-2.1-9.55-9.64-8.33-11.55.79-1.64,7.79,0,16,1,23.72L828,919.66c1.77,14.65,6.22,13.88,9.76,15.27,11.48,4.51-.66-43.95-3.65-67.06C832.54,855.48,830.73,842.69,828.06,830.52Z" transform="translate(-195.98 -551.3)"/><path class="cls-2" d="M806.09,729.88c-.92-3.1-3.84-9.69-8.53-8.18-7.64,2.47-.47,31.69.81,37.84,1.56,7.52,6.84,31.15,8.36,38.68,2.4,11.85,5.25,37.55,16.72,31.93,8.42-4.13-.82-29.33-2-36.13C818.81,779.39,810.33,744.16,806.09,729.88Z" transform="translate(-195.98 -551.3)"/><path class="cls-7" d="M827.5,927.34c8-1.75,12.87-3,18.46-4,.71,3.9,1.93,6.87,2.64,10.77,4.34-2.5,7.5-3.39,11.17-1.84a10.83,10.83,0,0,1,6.44,9.32,6.54,6.54,0,0,1-5.12,6.72c-7.56,1.85-14.89,4.06-22.48,4.76C828.86,954,827.78,930.07,827.5,927.34Z" transform="translate(-195.98 -551.3)"/><path class="cls-5" d="M857.76,937.32c2,1.55,2.68,3.29,2,5.49" transform="translate(-195.98 -551.3)"/><path class="cls-6" d="M848.66,933.83a5.9,5.9,0,0,0-1.88,4.76" transform="translate(-195.98 -551.3)"/><path class="cls-1" d="M808.47,732.39a8.11,8.11,0,0,1-4.11,4.31c-11.3,5.47-19.77-9.69-9.51-16.8C803.52,713.89,811.7,724.5,808.47,732.39Z" transform="translate(-195.98 -551.3)"/><path class="cls-2" d="M755.28,786.24c-3.06,3.32-6.28,6.73-10.49,8.36-1.66.63-3.64.94-5.13,0-1.67-1.06-2.15-3.38-1.64-5.29a14.31,14.31,0,0,1,3-5c12.45-15.36,35.44-43.46,50.5-56.4,5-4.32,10.34-4.22,9.65,2.94-.74,7.72-18.4,24.56-23.22,30.09Q766.79,773.71,755.28,786.24Z" transform="translate(-195.98 -551.3)"/><path class="cls-2" d="M692,835.27l32.78-35.71c1.84-2,8.61-9.7,11.14-10.7s5.86-.59,7.38,1.67c2,2.88.23,6.83-1.83,9.63A334,334,0,0,1,701.21,844c-1.88,1.67-9.88,10.45-12.4,10.56C680.89,854.89,688.63,838.91,692,835.27Z" transform="translate(-195.98 -551.3)"/><path class="cls-10" d="M493.72,890.84c-53.79-26.06-69-102.4-34.38-153.45,15.5-22.89,38.85-36.75,61.81-49.5,11.81-6.55,24.48-12.46,35.37-20.69,7.27-5.48,14.46-15.07,24-15.67,11.3-.71,18.92,11.46,27.15,17.8,12.75,9.82,26.55,18.2,40.38,26.13,44.13,25.29,82.28,67.26,67.48,125.64-17,67-82.89,90.67-139.82,88.24C548.27,908.17,519,903.1,493.72,890.84Z" transform="translate(-195.98 -551.3)"/><g class="cls-11"><path class="cls-12" d="M719.82,785.81c-1.65-7.18-4.9-14.69-11.28-17.88a14.13,14.13,0,0,0-5.55-1.46,1,1,0,0,1-.92-1c0-.71,0-1.43,0-2.14-.31-11.53-3.58-22.64-15.3-27.54-5.41-2.26-11.92-2.93-16.65.21a1.69,1.69,0,0,1-2.57-1.06c0-.19-.09-.38-.13-.58A24.66,24.66,0,0,0,658.64,720a18.92,18.92,0,0,0-15.83-3.59,13.94,13.94,0,0,0-5.89,2.72.94.94,0,0,1-1.54-.69c-.76-8.25-5.48-15.64-13.45-17.91-5-1.44-11.75-.39-15.14,4.11a1.31,1.31,0,0,1-2.26-.2c-4.81-9.77-15-18.1-25.29-17.91s-20.25,7.39-24.6,17.28a1.1,1.1,0,0,1-1.91.22,11.64,11.64,0,0,0-4-3.66,12.81,12.81,0,0,0-7.75-.91,22.31,22.31,0,0,0-9.92,4.07,31.54,31.54,0,0,0-10.6,14.09.62.62,0,0,1-1.16,0,8.1,8.1,0,0,0-6.52-4.54c-9.59-.94-21.25,10.61-23.38,20.44a1.34,1.34,0,0,1-1.95.95,12.77,12.77,0,0,0-7.91-.95,21.45,21.45,0,0,0-11.44,5.73c-8.36,7.81-12.54,18.08-13.68,29.23a1.58,1.58,0,0,1-1.32,1.41,18.59,18.59,0,0,0-9.8,4.87c-6,5.85-8.47,14.71-9.54,23.24-1.17,9.25-1,18.8,1.44,27.78s7.45,17.37,14.7,22.86a20.35,20.35,0,0,0,9.73,4.33c8.24,1,15.91-5.6,19.3-13.48.22-.52.43-1.05.63-1.58a62.62,62.62,0,0,0,5,4.81c15.65,13.29,35.9,19.07,55.8,22.56,33.4,5.84,68.74,5.91,99.92-7.79a109.88,109.88,0,0,0,27.12-17.06h0c6.15,7.83,16.1,12.64,25.65,11,12.87-2.26,21.76-15.07,25.58-28.08A74.76,74.76,0,0,0,719.82,785.81Z" transform="translate(-195.98 -551.3)"/><path class="cls-10" d="M449.4,840.77a68.44,68.44,0,0,1-1-19.89c.61-5.89,2-13.54,6.1-18.08,3-3.28,8.48-3.6,12.06-1.11a1,1,0,0,0,1.48-.88,56,56,0,0,1,6.3-30c1.65-3,3.66-6,6.55-7.83a12.9,12.9,0,0,1,17.73,4.14,1,1,0,0,0,1.84-.18,47.66,47.66,0,0,1,17.93-24c9.31-6.34,18.59-7,26.05,1.44a1.34,1.34,0,0,0,2.24-.34c12.34-27.3,52.7-25.27,66.36-.68a1.11,1.11,0,0,0,1.91.06c4.66-7.42,18.84-8.2,25.87-3.64,9,5.85,12.71,17.33,15.62,27.27a1.05,1.05,0,0,0,1.91.24,14.31,14.31,0,0,1,7.59-5.83,13.05,13.05,0,0,1,11.36,2,21.14,21.14,0,0,1,5.4,6.61,57.64,57.64,0,0,1,7.26,21.3c.12.89.21,1.79.36,2.68a.71.71,0,0,0,1.28.32,10.08,10.08,0,0,1,4.78-3.69c4.34-1.44,9.27.6,12.35,4s4.63,7.93,5.66,12.41a72.83,72.83,0,0,1,.49,30.41s-15.16,101.93-133.3,100.34C475.12,936.41,449.4,840.77,449.4,840.77Z" transform="translate(-195.98 -551.3)"/><path class="cls-12" d="M469,844.82a20.38,20.38,0,0,1,1.09-6c2.46-6.9,9-6.34,14.65-4.57a1.5,1.5,0,0,0,1.91-1.64c-1-9.4,1.21-24.1,10-27.65a8.22,8.22,0,0,1,8.72,1.69,1.9,1.9,0,0,0,3-1c4.36-14.69,15-34.33,31.82-31.56,3.52.57,5.89,3.55,6.85,7.14a.78.78,0,0,0,1.51,0c4-14.47,19.24-23.47,30.11-24.13,14.1-.86,25.12,9.12,30.92,21.89a1,1,0,0,0,1.82-.06c1.5-3.77,4.36-6.9,10.53-8C632.07,769,641.81,782.4,644,793a.83.83,0,0,0,1.53.29,9.13,9.13,0,0,1,8.74-4.85c10.2,1.26,17.08,19.74,17.94,30.83a.7.7,0,0,0,1.25.4c2.42-3.19,7.92-4.07,11.5-1.66,13.63,9.17,11.65,29.8,7.77,43.26-5.15,17.84-16.91,31.49-33.81,39.77-35.48,17.39-77.25,12.6-115,8.25-11.74-1.36-23.43-3.31-35-5.8-11.23-2.42-23.2-9.86-29.48-21.09C473.63,872,468.46,857.12,469,844.82Z" transform="translate(-195.98 -551.3)"/></g><path class="cls-6" d="M493.72,890.84c-53.79-26.06-69-102.4-34.38-153.45,15.5-22.89,38.85-36.75,61.81-49.5,11.81-6.55,24.48-12.46,35.37-20.69,7.27-5.48,14.46-15.07,24-15.67,11.3-.71,18.92,11.46,27.15,17.8,12.75,9.82,26.55,18.2,40.38,26.13,44.13,25.29,82.28,67.26,67.48,125.64-17,67-82.89,90.67-139.82,88.24C548.27,908.17,519,903.1,493.72,890.84Z" transform="translate(-195.98 -551.3)"/><path class="cls-12" d="M613.21,798.67c3.34-3.78,2.46-6.88-.47-8.58s-7.4-1.59-9.91.73c1.89-1.78,1.2-5.42-.88-7s-4.92-1.35-7.27-.35a10.33,10.33,0,0,0-4.2,3.15,14.32,14.32,0,0,0,1.22-5.08,4.65,4.65,0,0,0-2.38-4.29,5.44,5.44,0,0,0-4,.29,31.86,31.86,0,0,0-16,13.18c-1.31,2.1-7.64,2.37-9.8,2.87a101.38,101.38,0,0,0-14.81,4.65A109.31,109.31,0,0,0,503,827.66c-15.93,18.08-25.8,45.6-21.87,69.34,9.86,59.62,82.37,75.24,133.76,65.33,26.3-5.07,49.77-21.38,60.52-45.47,9.45-21.19,7.91-45.89-1.55-66.86A90.2,90.2,0,0,0,649,817.39,98.5,98.5,0,0,0,613.21,798.67Z" transform="translate(-195.98 -551.3)"/><g class="cls-13"><path class="cls-10" d="M698.36,873.35c-9.59-19.37-32.55-42.42-54-47.05-29.9-6.46-45.17,10.62-60.13,28.64a2.56,2.56,0,0,1-4.24-.45c-14.29-27.28-31-41.2-64.07-39.76-21,.91-45.9,23.44-53.37,40.6,0,0,22.66-103.47,126.53-92.43C697.09,774.38,698.36,873.35,698.36,873.35Z" transform="translate(-195.98 -551.3)"/></g><path class="cls-6" d="M613.21,798.67c3.34-3.78,2.46-6.88-.47-8.58s-7.4-1.59-9.91.73c1.89-1.78,1.2-5.42-.88-7s-4.92-1.35-7.27-.35a10.33,10.33,0,0,0-4.2,3.15,14.32,14.32,0,0,0,1.22-5.08,4.65,4.65,0,0,0-2.38-4.29,5.44,5.44,0,0,0-4,.29,31.86,31.86,0,0,0-16,13.18c-1.31,2.1-7.64,2.37-9.8,2.87a101.38,101.38,0,0,0-14.81,4.65A109.31,109.31,0,0,0,503,827.66c-15.93,18.08-25.8,45.6-21.87,69.34,9.86,59.62,82.37,75.24,133.76,65.33,26.3-5.07,49.77-21.38,60.52-45.47,9.45-21.19,7.91-45.89-1.55-66.86A90.2,90.2,0,0,0,649,817.39,98.5,98.5,0,0,0,613.21,798.67Z" transform="translate(-195.98 -551.3)"/><path class="cls-14" d="M602.92,895.93c-.65-11.28,4.55-21.88,13.79-29.72a42.36,42.36,0,0,1,34-9.54c8.33,1.44,14.07,6.43,14.56,8.27,2.09,7.78-2.37,20.62-9.9,27.15C640.79,904.73,615.47,903.15,602.92,895.93Z" transform="translate(-195.98 -551.3)"/><g class="cls-15"><path class="cls-16" d="M626.48,855.09c-21,8.17-16.91,46.94,7.14,46.94,25.18,0,30.69-39.76,8.09-47.43A22.46,22.46,0,0,0,626.48,855.09Z" transform="translate(-195.98 -551.3)"/><path class="cls-14" d="M658.35,868.8a79.53,79.53,0,0,0-13.21,5.54c-.41.22-.87.52-.86.88s.27.46.52.62c4.8,3.17,8.28,5.48,13.91,7.74" transform="translate(-195.98 -551.3)"/></g><path class="cls-6" d="M602.92,895.93c-.65-11.28,4.55-21.88,13.79-29.72a42.36,42.36,0,0,1,34-9.54c8.33,1.44,14.07,6.43,14.56,8.27,2.09,7.78-2.37,20.62-9.9,27.15C640.79,904.73,615.47,903.15,602.92,895.93Z" transform="translate(-195.98 -551.3)"/><path class="cls-14" d="M555.6,893.67a47.7,47.7,0,0,0-13-28.94,44.14,44.14,0,0,0-27.85-13.31c-7.7-.63-16,1.11-21.6,6.72.85,14.22,10.4,25.73,21.86,32.48a53.78,53.78,0,0,0,18.88,6.82C536.8,897.89,555.91,897.47,555.6,893.67Z" transform="translate(-195.98 -551.3)"/><g class="cls-17"><path class="cls-16" d="M511.1,855c-16.91,13-2.73,47.53,19,40.76,18.37-5.7,18.11-36.67,1.23-43.82C524.59,849.05,516.85,850.55,511.1,855Z" transform="translate(-195.98 -551.3)"/><path class="cls-14" d="M545.94,873.78a59.59,59.59,0,0,0-12.26,2.28c-.39.11-.84.29-.91.66a1,1,0,0,0,.31.73,80.06,80.06,0,0,0,11.41,11.82" transform="translate(-195.98 -551.3)"/></g><path class="cls-6" d="M555.6,893.67a47.7,47.7,0,0,0-13-28.94,44.14,44.14,0,0,0-27.85-13.31c-7.7-.63-16,1.11-21.6,6.72.85,14.22,10.4,25.73,21.86,32.48a53.78,53.78,0,0,0,18.88,6.82C536.8,897.89,555.91,897.47,555.6,893.67Z" transform="translate(-195.98 -551.3)"/><path class="cls-1" d="M627.53,842.1c2.29-1.38,4.89-2.55,7.54-2.27s5.26,2.52,5.08,5.18a5.48,5.48,0,0,1-2.74,4.08,16.26,16.26,0,0,1-4.77,1.75l-6.16,1.55c-2,.49-6,1.25-7.12-1.08C617.55,847.48,625.16,843.52,627.53,842.1Z" transform="translate(-195.98 -551.3)"/><path class="cls-1" d="M528.17,836.77c-11.66-3.26-11.15,7.76-1.85,10.91,5.7,1.93,16.74,5.77,16.76.33C543.1,844.29,533.7,838.33,528.17,836.77Z" transform="translate(-195.98 -551.3)"/><path class="cls-18" d="M567.63,918.38a2.18,2.18,0,0,1-1.31-.44,3.77,3.77,0,0,1-1.2-2.17c-.91-3.59-1.14-10.06-1.13-13.32a1.49,1.49,0,0,1,1.5-1.5,1.39,1.39,0,0,1,.35,0l9.32,2.22a1.5,1.5,0,0,1,1,.71,1.53,1.53,0,0,1,.12,1.2c-1.12,3.57-3.64,7.68-5.48,10.67l-.34.56C569.61,917.68,568.64,918.38,567.63,918.38Z" transform="translate(-195.98 -551.3)"/><path class="cls-16" d="M565.49,902.45l9.32,2.22c-1.14,3.62-3.91,8-5.67,10.9-.4.65-1,1.31-1.51,1.31a.66.66,0,0,1-.41-.14,2.42,2.42,0,0,1-.65-1.34c-.82-3.27-1.09-9.44-1.08-12.95m0-3a3,3,0,0,0-1.85.64,3,3,0,0,0-1.15,2.35c0,3.33.23,10,1.17,13.69a5.19,5.19,0,0,0,1.76,3,3.7,3.7,0,0,0,2.21.74c1.09,0,2.68-.48,4.07-2.75l.34-.56c1.88-3.06,4.46-7.26,5.63-11a3,3,0,0,0-2.16-3.81l-9.32-2.22a3.34,3.34,0,0,0-.7-.08Z" transform="translate(-195.98 -551.3)"/><path class="cls-18" d="M589.28,918.31c-.77,0-1.88-.41-2.79-2.33A77.51,77.51,0,0,1,582,904.41a1.49,1.49,0,0,1,1.28-1.86l9.14-1h.17a1.5,1.5,0,0,1,1.49,1.66c-.37,3.53-1,9.44-2.24,12.81a3.68,3.68,0,0,1-1.43,2,2.21,2.21,0,0,1-1.11.31Z" transform="translate(-195.98 -551.3)"/><path class="cls-16" d="M592.57,903h0m0,0c-.37,3.49-1,9.29-2.15,12.44a2.48,2.48,0,0,1-.79,1.27.69.69,0,0,1-.35.1c-.57,0-1.1-.76-1.43-1.47a73.09,73.09,0,0,1-4.42-11.3l9.14-1m0-3h-.07a1.55,1.55,0,0,0-.31,0l-9.1,1a3,3,0,0,0-2.13,1.28,3,3,0,0,0-.44,2.45,77.23,77.23,0,0,0,4.61,11.83c1.32,2.77,3.16,3.19,4.15,3.19a3.73,3.73,0,0,0,1.88-.52,5.13,5.13,0,0,0,2.07-2.8c1.2-3.24,1.82-8.42,2.31-13a3.4,3.4,0,0,0,0-.45,3,3,0,0,0-3-3Zm0,6h0Z" transform="translate(-195.98 -551.3)"/><path class="cls-2" d="M561.44,898.79c5.76,11.73,28.82,13.6,35.39.55" transform="translate(-195.98 -551.3)"/><path class="cls-2" d="M619.37,911.89A39,39,0,0,1,669.59,896" transform="translate(-195.98 -551.3)"/><path class="cls-2" d="M536.23,907.51a39.62,39.62,0,0,0-46-27.17" transform="translate(-195.98 -551.3)"/><path class="cls-7" d="M495.65,894.67c.4-12.06,20.39-4.79,20.44,5.18.06,12.84-20.58,4.56-20.45-5C495.64,894.8,495.65,894.73,495.65,894.67Z" transform="translate(-195.98 -551.3)"/><path class="cls-7" d="M657.07,908c1.19-12-19.58-7.43-21,2.44-1.75,12.72,19.8,7.24,20.93-2.23A1.49,1.49,0,0,1,657.07,908Z" transform="translate(-195.98 -551.3)"/><path class="cls-19" d="M517.49,865.33a7.18,7.18,0,0,1,1-2.38c3.38-5.32,12.52-4.14,14.11,2.06,1.48,5.79-2.8,10.9-8.85,9.94C519.31,874.25,516.62,869.49,517.49,865.33Z" transform="translate(-195.98 -551.3)"/><path class="cls-19" d="M624.92,868.84c1.27-7.39,13.05-7.9,15-.33C643.18,881.31,622.6,882.35,624.92,868.84Z" transform="translate(-195.98 -551.3)"/><path class="cls-2" d="M463.48,868.5l-40.77,26.21c-2.3,1.48-4.67,3-6.09,5.36s-1.58,5.67.39,7.55c2.51,2.41,6.69,1.39,9.8-.16A257.46,257.46,0,0,0,470.5,879.1a11.36,11.36,0,0,0,4.29-6.07C476.47,865.29,467.63,865.83,463.48,868.5Z" transform="translate(-195.98 -551.3)"/><path class="cls-2" d="M410.39,918.26c3.8-2.44,7.71-5,10-8.91.91-1.52,1.54-3.42.86-5.06-.77-1.82-3-2.69-4.94-2.51a14.11,14.11,0,0,0-5.49,2.12c-17.26,9.65-40.78,21.65-56.1,34.29-5.11,4.21-5.24,8.08,1.93,8.63,7.74.58,18.58-6.71,24.85-10.51Q396.08,927.47,410.39,918.26Z" transform="translate(-195.98 -551.3)"/><path class="cls-1" d="M343.67,947.62a8.12,8.12,0,0,0,1.7,5.7c7.56,10,23-1.24,17.1-12.24C357.49,931.77,344.4,939.13,343.67,947.62Z" transform="translate(-195.98 -551.3)"/><path class="cls-2" d="M358.47,960.61c-2.75-2.13-9-8.29-5.05-11.29,7.34-5.53,27.63,9.31,33.29,13,6.93,4.52,28.57,19,35.49,23.57,4.56,3,31.16,15.83,18.37,23.79-8.1,5-21.55-7.89-27.88-11.8C399.06,989.49,371.16,970.38,358.47,960.61Z" transform="translate(-195.98 -551.3)"/><path class="cls-2" d="M442,1014.47c-8.63-6.23-4.51-12.86,5.23-10.63,8.33,1.91,15.85,7.08,23,11.47l54.63,33.78c5.22,3.34,12.92,12.47,11.31,16.05-4.63,10.32-49.12-21.37-53.79-24.05A467.14,467.14,0,0,1,442,1014.47Z" transform="translate(-195.98 -551.3)"/><path class="cls-4" d="M528.32,1049.82c-3.91,7.24-6.45,11.53-9,16.62,3.55,1.76,6.07,3.76,9.62,5.52a10.58,10.58,0,0,0,2.31,19,6.42,6.42,0,0,0,7.88-3.06c3.48-6.76,8.94-14.76,10.91-22.12C551.89,1059,530.86,1050.84,528.32,1049.82Z" transform="translate(-195.98 -551.3)"/><path class="cls-5" d="M528.9,1081.38c.51,2.44,1.74,3.87,4,4.28" transform="translate(-195.98 -551.3)"/><path class="cls-6" d="M528.7,1071.94a5.85,5.85,0,0,1,5.09-.48" transform="translate(-195.98 -551.3)"/><path class="cls-2" d="M691.14,871.19l40.58,26.53c2.28,1.49,4.66,3,7.37,3.37s5.82-.87,6.74-3.44c1.17-3.27-1.46-6.68-4.16-8.88A257.07,257.07,0,0,0,698,860.46a11.31,11.31,0,0,0-7.29-1.44C682.91,860.64,687,868.49,691.14,871.19Z" transform="translate(-195.98 -551.3)"/><path class="cls-2" d="M758.35,899.18c-3.87-2.56-8-4.83-12.34-5.35-1.76-.21-3.75,0-5,1.28s-1.24,3.81-.28,5.54a14.26,14.26,0,0,0,4.19,4.14c15.85,11.82,40.85,30.84,58.22,40.48,4.75,2.64,8.44-5,5.12-9.95-4.77-7.15-13.75-11.33-20.53-16.24-7.21-5.23-14.69-10.09-22.16-15C763.28,902.62,760.86,900.84,758.35,899.18Z" transform="translate(-195.98 -551.3)"/><path class="cls-1" d="M800,948.59a9.29,9.29,0,0,0,1.64,5.69c6.79,9.9,19.44-1.93,14.72-12.51C812.14,932.36,800.34,940,800,948.59Z" transform="translate(-195.98 -551.3)"/><path class="cls-2" d="M802.13,962.4c2.78-2.09,9.11-8.2,5.16-11.24-7.29-5.59-27.72,9.05-33.41,12.69-7,4.46-28.75,18.78-35.72,23.23-4.58,2.93-33,16.3-20.33,24.38,8,5.11,23.36-8.45,29.73-12.3C761.27,990.9,789.35,972.05,802.13,962.4Z" transform="translate(-195.98 -551.3)"/><path class="cls-2" d="M718.13,1015.48c8.68-6.15,4.63-12.82-5.13-10.68-8.34,1.83-15.91,6.93-23.15,11.25l-54.94,33.26c-5.25,3.29-9.52,13-7.7,16.43,2.26,4.3,45.55-21.39,50.25-24A467.71,467.71,0,0,0,718.13,1015.48Z" transform="translate(-195.98 -551.3)"/><path class="cls-9" d="M631.34,1049.42c4.85,6.65,7.95,10.56,11.13,15.26-3.28,2.22-5.51,4.55-8.79,6.77a10.57,10.57,0,0,1,.26,19.12,6.4,6.4,0,0,1-8.21-2c-4.37-6.23-10.85-13.43-13.79-20.46C609.21,1061.66,629,1050.77,631.34,1049.42Z" transform="translate(-195.98 -551.3)"/><path class="cls-5" d="M634.49,1078.16c.67,2.85-.31,4.93-2.12,7" transform="translate(-195.98 -551.3)"/><path class="cls-6" d="M633.94,1071.39a5.88,5.88,0,0,0-5.11.21" transform="translate(-195.98 -551.3)"/><path class="cls-8" d="M549.59,588.18a47.22,47.22,0,0,1-1.6-15.06,2.48,2.48,0,0,1,2.16-2.37c3-.38,5.69-1,8.92-1.24-1.21-3.19-2.56-7.84-.61-11.31a10.83,10.83,0,0,1,10-5.38,6.43,6.43,0,0,1,6.13,5.82c.65,7.58,2.4,15.25,2.27,22.87-.15,8.75-19.2,8.45-25.22,8.27A2.14,2.14,0,0,1,549.59,588.18Z" transform="translate(-195.98 -551.3)"/><path class="cls-5" d="M565.16,557.89c-2.33.86-3,2.71-3,5" transform="translate(-195.98 -551.3)"/><path class="cls-6" d="M557.53,569.72c1.64-.17,2.93-.53,4.65-.57" transform="translate(-195.98 -551.3)"/><path class="cls-16" d="M473,935.41a11.74,11.74,0,0,1-8.09.9c-.27.13,1.62,6.2-4.22,9.22s-13.74-.26-17.33-6.79-3.39-11.43-2.6-12.51c1.38-1.88,7-5.67,13.07-8.83s12.18-5.63,13.89-4.62a20.75,20.75,0,0,1,6.71,7.7C478.41,927.7,477.32,933.18,473,935.41Zm-19.36-5.34c-.18.09-.92.42-1.68.81-.59.31-1.15.65-1.53.9-.6.48-.47.92-.07,1.66.86,1.57,2.85,2.88,4.43,2.07s1.66-2.43.82-4C455.19,930.78,454.15,929.81,453.65,930.07ZM467,922.75c-.46-.32-2.89.82-3.47,1.13a1,1,0,0,0-.51,1.6,3.55,3.55,0,0,0,4.59,1.64,1.88,1.88,0,0,0,1-2.74A5.27,5.27,0,0,0,467,922.75Z" transform="translate(-195.98 -551.3)"/><path class="cls-16" d="M488.18,964.46c-5.51,8.8-9,11.86-10.37,13s-2.74.36-4.17-1.18a45.68,45.68,0,0,1-4.11-5c-1.1-1.63-.89-2.66.87-4.15.65-.55,1.4-1,2-1.48a1.1,1.1,0,0,0,.15-1.76c-1.6-1.73-3.92-3.64-5.6-2.21-.84.72-1.29,1.49-2.43,2.46s-1.69.39-2.6-.22a42.91,42.91,0,0,1-5.91-5.35c-.92-1-1-2.73.77-4.19a57.19,57.19,0,0,1,15.45-9.05c8.52-3.55,12.45-5,14.67-3.92A28.66,28.66,0,0,1,494,947C495.83,949,493.64,955.69,488.18,964.46Zm-13.08-9c-.5.42-.59.62,0,1.25,1.23,1.32,3.3,2.45,3.76,2.06,1.33-1.14,2.93-5.31,2.35-5.94S475.75,954.88,475.1,955.43Z" transform="translate(-195.98 -551.3)"/><path class="cls-16" d="M520.5,979.24c-2.26,3.08-7.79,3.18-10.63,1.32-.85-.55-1.12-1.38-.74-1.9,1.81-2.48,2.18-4.26.61-5.28s-4.79-1-8,3.44c-2.4,3.28-2.65,7,.06,8.73,3.09,2,7.07.37,8.34,1.2s3,5.82,1.4,8c-1.05,1.44-8.94,3.14-16.45-1.77-9.79-6.41-10.43-15.47-4.86-23.07A18.8,18.8,0,0,1,515.7,965C521.93,969.05,523.6,975,520.5,979.24Z" transform="translate(-195.98 -551.3)"/><path class="cls-16" d="M540.27,979.56c-.76,1.86-3.93,4.06-5.41,7.69-.22.54-.09.9.2,1,.78.27,3-1.06,5.66-3.15s4.51-4,5-5.06a2,2,0,0,1,2.65-.94c3.19,1.12,7.34,6.15,6.12,9.14s-12.82,7.31-12.82,7.31a6.9,6.9,0,0,1,2.9,4.13c.76,2.91.51,6.08,1.77,6.94a2.76,2.76,0,0,1,1.11,3.24c-1.2,2.94-8.78,2.41-11.49,1.46-1.65-.58-2.85-1.57-2.88-4.89s.37-7.28-1.18-7.83a1.61,1.61,0,0,0-2.24,1c-1.44,3.54-.7,6.59-1.12,7.64-.32.77-2.15,1.32-7.37-.52-3.15-1.1-4.39-2.67-4.23-5.1.11-1.62.82-5.41,3.2-11.26,3.29-8.06,6-13.12,7.93-13.74,2.5-.84,8.07-.39,10.49.46C540.25,977.69,540.62,978.7,540.27,979.56Z" transform="translate(-195.98 -551.3)"/><path class="cls-16" d="M596.92,991.39c-.13,3.14-2.45,4.12-4.24,4.63-2.47.69-4.13.67-4.23,3a74.24,74.24,0,0,0,.44,10.91c.38,2.37,1.06,3.54,1,4.93-.07,1.69-4.45,3.42-8.82,3.36-4.2,0-5.58-2.09-5.51-3.68s1.84-8.37,2.07-14.11c.1-2.41-.2-3.91-1.24-3.93-2.65,0-5.66,1.14-6.91,1.12s-2-.89-2-2.82c.22-5.45,1.88-9.43,5-9.39,2.76,0,5.18.45,9,.5,7.43.09,10.89-1.79,12.71-1.77C595.6,984.19,597.07,987.78,596.92,991.39Z" transform="translate(-195.98 -551.3)"/><path class="cls-16" d="M633.83,992.91c2.5,10.92-3.2,19.19-12.81,21.41-9.35,2.17-17.68-2-19.93-11.81-2.72-11.86,4.19-19.77,12.68-21.74C622.05,978.86,631.42,982.37,633.83,992.91Zm-20,6.17c1,4.31,3.7,7.28,5.73,6.81,2.39-.55,3-4.93,2-9.43-1.12-4.88-3.6-7.56-5.74-7.06C613.86,989.83,612.53,993.59,613.79,999.08Z" transform="translate(-195.98 -551.3)"/><path class="cls-16" d="M666.54,956.3c3.94-2.68,6-2.88,9.17-1.32s5,3.43,8.66,8.39c5.12,7,6.18,16.68-1.45,21.87-5.14,3.49-8.17,1.63-8.6,1.93s-.44,4.92-6.14,8.79a14.41,14.41,0,0,1-19.59-3.6c-5-6.79-7.67-14.15-6.46-16.79a25.15,25.15,0,0,1,5.89-7,3.05,3.05,0,0,1,4.26.73c1.23,1.68,2.32,8.78,7.39,15.7,2.31,3.16,3.41,3.17,4.4,2.5,1.46-1,.9-3.59-1.53-6.91s-4.08-4.78-5.17-6.26c-.8-1.1.46-3.59,4.7-6.47,2.57-1.75,4.14-1.18,5.06.07s2.75,4.63,4.81,7.44,3.69,3.81,4.63,3.17,1.39-2.58-1.53-6.57c-5.93-8.08-11.4-8.81-12.52-10.33C661.92,960.78,663,958.69,666.54,956.3Z" transform="translate(-195.98 -551.3)"/><path class="cls-16" d="M689.87,932.53a8.43,8.43,0,0,1,4.76,1.71c1.37,1,1.57,2.22.88,3.11s-2.93,3-4.44,5-2.05,3.18-.88,4a1.74,1.74,0,0,0,2.51-.18c1-1.25,1.94-3.69,2.91-4.94s1.92-1.58,4.42.16c2.73,1.92,3.69,3.64,2.9,4.65s-1.57,1.7-2.48,2.87c-1.48,1.9-1.65,3.08-.45,3.92.73.51,1.29.59,2.36-.78,3.67-4.71,4-9.07,4.68-9.92s2.38-.58,4.52.91c2.81,2,4.09,3.37,3.75,5a37.69,37.69,0,0,1-6.46,12.6c-4,5.08-5.46,5.89-6.94,5.55-1.93-.48-6.85-2.87-12.12-6.55-7.73-5.41-11.57-9.27-12.54-10.58s.39-4.64,4.88-10.41C685.15,934.77,687.22,932.42,689.87,932.53Z" transform="translate(-195.98 -551.3)"/><path class="cls-16" d="M708.65,907.94a10.48,10.48,0,0,1,5.71,5.38c.28.11,4-5.25,10.06-2.92s8.25,10.31,5.17,17.22-7.16,10-8.52,10.1c-2.38.22-8.89-1.43-15.2-3.86s-12.06-5.3-12.29-7.22c-.27-2.21.28-5.89,2.1-10C699.09,909,704.19,906.22,708.65,907.94Zm-6.58,12.69c0,.55,2.45,1.59,3.06,1.82a1.11,1.11,0,0,0,1.6-.68,3.26,3.26,0,0,0-1.49-4.46,2,2,0,0,0-2.82,1.07A5.27,5.27,0,0,0,702.07,920.63Zm14.17,5.08c.19.07.91.4,1.7.71a15.42,15.42,0,0,0,1.67.53c.75.13,1-.25,1.38-1,.74-1.66.58-4-1-4.61s-3,.36-3.7,2C715.87,924.11,715.73,925.51,716.24,925.71Z" transform="translate(-195.98 -551.3)"/></g></svg>